<svg xmlns="http://www.w3.org/2000/svg" width="273.412" height="77.901" viewBox="0 0 273.412 77.901"><defs><style>.a{fill:#8e714e;}.a,.b,.c,.d,.e,.f{fill-rule:evenodd;}.b{fill:#442d22;}.c{fill:#fff;}.d{fill:#a6a385;}.e{fill:#499d4a;}.f{fill:#58aa50;}</style></defs><g transform="translate(0 -0.203)"><path class="a" d="M432.583,58.1c-.246.049-.493.592-.493.887-.049,1.974-.1,7.2-.1,10.756a.366.366,0,0,0,.3.3c.74.049,2.516.1,4.045.1a10.56,10.56,0,0,0,4.046-.591,5.241,5.241,0,0,0,2.614-4.935c0-4.785-3.355-6.611-8.338-6.611a7.914,7.914,0,0,0-2.072.1Zm12.729,22.053c0-4.884-3.6-7.6-10.114-7.6-.3,0-2.368-.049-2.862.049-.148.05-.345.149-.345.3,0,3.5-.05,9.078.1,11.248a3.723,3.723,0,0,0,1.628,2.664,11.293,11.293,0,0,0,4.292.592c3.9,0,7.3-2.171,7.3-7.252ZM422.52,55.388c.493,0,1.973.148,5.772.148,3.6,0,6.463-.1,9.966-.1,4.292,0,10.212,1.529,10.212,7.943,0,3.157-2.22,5.674-5.131,6.907-.148.049-.148.148,0,.2,4.144,1.037,7.8,3.6,7.8,8.436,0,4.737-2.96,7.746-7.253,9.621a23.6,23.6,0,0,1-9.176,1.529c-2.516,0-9.275-.3-13.024-.2-.395-.149.345-1.925.69-2.22a9.209,9.209,0,0,0,2.516-.4c1.332-.345,1.48-.74,1.677-2.762.1-1.727.1-7.845.1-12.186,0-5.97.05-10.015,0-11.988-.049-1.529-.592-2.023-1.677-2.319-.839-.148-2.22-.345-3.355-.493-.247-.247.592-1.925.889-2.121ZM394.052,86.074c1.185.937,3.5,1.331,5.576,1.331a10.931,10.931,0,0,0,7.894-2.812c2.615-2.367,4.44-6.018,4.44-11.84,0-5.576-2.121-10.115-6.463-12.778a17.452,17.452,0,0,0-9.275-2.171,7.394,7.394,0,0,0-2.762.345,1.45,1.45,0,0,0-.493.789c-.1.987-.1,8.584-.1,13.025,0,4.588,0,11,.1,11.742a3.059,3.059,0,0,0,1.085,2.368Zm-11.2-30.687c.938,0,4.539.148,6.266.148,3.109,0,5.329-.148,11.2-.148,4.933,0,9.078,1.332,12.038,3.848a16,16,0,0,1,5.477,12.63c0,7.45-3.4,11.742-6.809,14.209-3.4,2.516-7.844,4-14.159,4-3.355,0-9.127-.1-13.913-.148H382.9c-.246-.444.395-2.171.789-2.22a7.864,7.864,0,0,0,2.27-.444c1.036-.4,1.233-.938,1.381-2.763.148-3.4.1-7.5.1-12.137,0-3.305.049-9.769-.05-11.841-.148-1.726-.887-2.171-2.368-2.467-.74-.148-1.727-.345-3.108-.493-.2-.346.69-1.875.937-2.171Z" transform="translate(-177.722 -25.681)"/><path class="b" d="M183.9,97.962a9.922,9.922,0,0,1-3.207-.838,1.5,1.5,0,0,1-.4-.79c-.1-1.727-.1-6.66-.1-9.965a11.63,11.63,0,0,0-1.579-6.611A6.736,6.736,0,0,0,172.9,76.8c-2.171,0-5.082,1.48-7.5,3.552-.049.049-.444.4-.395-.148,0-.543.1-1.628.148-2.368a1.279,1.279,0,0,0-.345-1.036,32.927,32.927,0,0,1-7.647,1.973c-1.184.248-1.48,1.382-.246,1.777h.049a10.947,10.947,0,0,1,2.91,1.283,1.535,1.535,0,0,1,.444,1.381c.049,3.7.049,9.374-.1,12.482-.049,1.233-.395,1.677-1.283,1.874l.1-.049a19.478,19.478,0,0,1-2.072.395,2.884,2.884,0,0,0,0,2.22c.543,0,3.4-.148,5.773-.148,3.256,0,4.933.148,5.772.148a3.212,3.212,0,0,0,.247-2.22,9.134,9.134,0,0,1-2.269-.345c-.888-.2-1.135-.641-1.185-1.677-.1-2.615-.1-8.141-.1-11.89a2.379,2.379,0,0,1,.591-1.826,7.465,7.465,0,0,1,4.589-1.677,5.1,5.1,0,0,1,3.4,1.135,4.851,4.851,0,0,1,1.579,3.108c.246,2.121.148,6.315.148,9.966,0,1.973-.148,2.467-.887,2.713a9.39,9.39,0,0,1-2.27.444,2.889,2.889,0,0,0,0,2.221c1.431,0,3.108-.148,5.575-.148,3.059,0,5.032.148,5.822.148a3.441,3.441,0,0,0,.148-2.122Zm13.666-18.845c-2.614,0-4.243,2.022-4.243,5.179,0,3.207,1.431,6.907,5.476,6.907a3.822,3.822,0,0,0,2.565-.987,6.532,6.532,0,0,0,1.579-4.539c0-4.095-2.023-6.561-5.378-6.561Zm-.345,21.806a4.241,4.241,0,0,0-2.121.543c-2.072,1.331-3.009,2.614-3.009,4.144a4.364,4.364,0,0,0,1.727,3.551,8.765,8.765,0,0,0,5.92,1.826c5.032,0,7.253-2.714,7.253-5.377a3.771,3.771,0,0,0-2.861-3.8,19.927,19.927,0,0,0-6.907-.889Zm.345,12.828a10.916,10.916,0,0,1-7.055-2.072,6.5,6.5,0,0,1-2.615-4.884,3.78,3.78,0,0,1,.987-2.467,26.164,26.164,0,0,1,4.539-3.651c.1-.049.148-.1.148-.2a.327.327,0,0,0-.2-.246,4.7,4.7,0,0,1-3.207-3.108v-.1c-.049-.3-.148-.592.3-.888.345-.246.839-.543,1.381-.887a20.267,20.267,0,0,0,2.269-1.481.361.361,0,0,0,.1-.3.326.326,0,0,0-.2-.246c-3.453-1.135-5.179-3.7-5.179-7.549a7.491,7.491,0,0,1,3.157-6.216,14.506,14.506,0,0,1,7.1-2.418h.148a15.128,15.128,0,0,1,5.426,1.184,9.132,9.132,0,0,0,3.208.493,4.27,4.27,0,0,0,3.453-1.282,2.679,2.679,0,0,1,.2.986,3.726,3.726,0,0,1-.642,2.269,2.8,2.8,0,0,1-2.171.938h-.247a10.993,10.993,0,0,1-1.283-.2l-.2.1c-.049.1,0,.2.049.345l.05.1a18.209,18.209,0,0,1,.3,2.121c0,4.045-1.628,5.821-3.355,7.153a11.361,11.361,0,0,1-5.772,2.22,6.213,6.213,0,0,0-.691.049c-.246,0-.592.05-.642.05h-.049c-.395.1-1.381.592-1.381,1.43,0,.74.444,1.628,2.565,1.777.444.049.887.049,1.381.1a43.253,43.253,0,0,1,7.943.986,5.529,5.529,0,0,1,3.7,5.279c0,3.651-2.614,7.055-6.956,9.176a15.871,15.871,0,0,1-6.562,1.431Zm28.121-34.387a4.582,4.582,0,0,0-2.664.739c-1.924,1.184-2.91,3.553-2.91,7.006,0,6.464,3.256,11,7.894,11a5.02,5.02,0,0,0,3.4-1.184c1.431-1.185,2.171-3.553,2.171-6.858,0-6.413-3.207-10.706-7.894-10.706Zm.889,21.115c-8.387,0-11.4-6.167-11.4-11.939a10.681,10.681,0,0,1,4.884-9.374,14.85,14.85,0,0,1,7.549-2.22c6.413,0,10.9,4.588,10.9,11.2,0,4.489-1.776,8.041-5.18,10.212a13.681,13.681,0,0,1-6.759,2.121h0ZM138.663,79.362A4.584,4.584,0,0,0,136,80.1c-1.924,1.184-2.91,3.553-2.91,7.006,0,6.464,3.256,11,7.894,11a5.022,5.022,0,0,0,3.4-1.184c1.43-1.185,2.171-3.553,2.171-6.858C146.556,83.655,143.4,79.362,138.663,79.362Zm.888,21.116c-8.387,0-11.4-6.167-11.4-11.939a10.681,10.681,0,0,1,4.884-9.374,14.85,14.85,0,0,1,7.549-2.22c6.414,0,10.9,4.588,10.9,11.2,0,4.489-1.776,8.041-5.18,10.212A13.365,13.365,0,0,1,139.551,100.478ZM83.16,99.985a2.109,2.109,0,0,1-.148-1.134,1.667,1.667,0,0,1,.148-.74,18.2,18.2,0,0,0,2.171-.444c.987-.247,1.381-.789,1.431-2.022.149-2.96.149-8.585.1-12.482v-.1a1.5,1.5,0,0,0-.543-1.381,11.147,11.147,0,0,0-2.96-1.283c-.444-.147-.74-.394-.691-.69,0-.3.3-.642.938-.74a36.1,36.1,0,0,0,7.548-1.924,1.22,1.22,0,0,1,.247.79l-.049.542c-.05.543-.1,1.185-.1,1.826a.382.382,0,0,0,.395.345.7.7,0,0,0,.3-.1c3.157-2.467,6.019-3.355,7.5-3.355a6.386,6.386,0,0,1,5.724,3.5.371.371,0,0,0,.345.2.351.351,0,0,0,.3-.148c2.911-2.22,5.822-3.553,7.746-3.553,4.588,0,7.3,3.4,7.3,9.177,0,1.628,0,3.749-.049,5.674,0,1.726-.049,3.305-.049,4.44a1.552,1.552,0,0,0,.887,1.184,10.535,10.535,0,0,0,2.862.691h.049a3.957,3.957,0,0,1-.3,1.875,12.126,12.126,0,0,1-1.233-.049q-1.873-.1-3.75-.1c-3.059,0-4.637.049-6.167.148a4.814,4.814,0,0,1,0-1.875,15.32,15.32,0,0,0,1.875-.444c.987-.3,1.233-.74,1.283-2.023,0-.937.2-8.93-.1-10.854a4.864,4.864,0,0,0-5.032-4.292,8.749,8.749,0,0,0-5.032,1.924.88.88,0,0,0-.2.493v.05a22.721,22.721,0,0,1,.2,4.045v3.207c0,2.22-.05,4.292,0,5.871a1.446,1.446,0,0,0,1.184,1.53c.3.049.493.1.74.148.444.1.888.2,1.579.345a2.663,2.663,0,0,1-.049,1.381.946.946,0,0,1-.2.493c-1.677-.049-3.4-.1-5.92-.1-.74,0-2.023.05-3.108.05-.889,0-1.727.049-2.22.049a2.6,2.6,0,0,1-.149-.987,1.537,1.537,0,0,1,.2-.888,3.336,3.336,0,0,1,.691-.1c.591-.1,1.085-.2,1.578-.3.839-.246,1.135-.691,1.184-1.776.148-2.467.3-9.522-.049-11.3-.592-2.861-2.22-4.292-4.835-4.292A9.052,9.052,0,0,0,91.7,82.422a1.593,1.593,0,0,0-.444,1.134v2.911c0,3.552,0,7.993.049,9.917a1.53,1.53,0,0,0,1.381,1.529,10.333,10.333,0,0,0,1.135.2l.887.148a4.137,4.137,0,0,1-.148,1.875c-.493,0-1.085-.049-1.777-.049-1.036-.05-2.368-.1-3.848-.1-1.727,0-2.96.049-3.947.1a11.918,11.918,0,0,0-1.825-.1Z" transform="translate(-38.469 -35.645)"/><path class="c" d="M29.548,84.483l-2.022-.691s.247-10.311-3.454-11.051c-2.466-2.862.4-121.366,9.276-.4,0,0-3.059,1.529-3.6,4.144-.592,2.566-.2,7.993-.2,7.993Z" transform="translate(-10.808 -8.303)"/><path class="d" d="M29.548,84.483l-2.022-.691s.247-10.311-3.454-11.051c-2.466-2.862.4-121.366,9.276-.4,0,0-3.059,1.529-3.6,4.144-.592,2.566-.2,7.993-.2,7.993Z" transform="translate(-10.808 -8.303)"/><path class="c" d="M34.378,66.387S52.09,54.743,47.945,30.519c-4-17.612-13.419-23.384-14.455-25.6A24.906,24.906,0,0,1,31.27.573l.74,48.99c0,.05-1.53,15,2.368,16.825" transform="translate(-14.552 -0.172)"/><path class="e" d="M34.378,66.387S52.09,54.743,47.945,30.519c-4-17.612-13.419-23.384-14.455-25.6A24.906,24.906,0,0,1,31.27.573l.74,48.99c0,.05-1.53,15,2.368,16.825" transform="translate(-14.552 -0.172)"/><path class="c" d="M15.682,66.855S-.945,55.508.042,35.528C.979,15.547,12.721,5.729,14.991,3.953A4.594,4.594,0,0,0,16.619.2c1.036,2.22.839,33.2.986,36.854C18.049,51.117,16.817,64.192,15.682,66.855Z" transform="translate(0)"/><path class="f" d="M15.682,66.855S-.945,55.508.042,35.528C.979,15.547,12.721,5.729,14.991,3.953A4.594,4.594,0,0,0,16.619.2c1.036,2.22.839,33.2.986,36.854C18.049,51.117,16.817,64.192,15.682,66.855Z" transform="translate(0)"/></g></svg>