<svg xmlns="http://www.w3.org/2000/svg" xmlns:xlink="http://www.w3.org/1999/xlink" width="167" height="113" viewBox="0 0 167 113"><defs><style>.a{fill:#fff;opacity:0.404;}.b{clip-path:url(#a);}.c{fill:none;}.d{fill:#5d87a1;}.e{fill:#f8981d;}</style><clipPath id="a"><rect class="a" width="167" height="113" transform="translate(-13641 -16749)"/></clipPath></defs><g class="b" transform="translate(13641 16749)"><g transform="translate(-13654.785 -16785.355)"><path class="c" d="M-18.458,6.58H218.535V170.844H-18.458Z" transform="translate(0 0)"/><path class="d" d="M47.787,121H41.371q-.34-16.245-1.873-30.552H39.44L29.672,121H24.787l-9.71-30.552h-.056Q13.94,104.186,13.658,121H7.81q.565-20.444,2.838-38.334H18.6l9.255,28.168h.057l9.312-28.168h7.609q2.5,20.955,2.953,38.334M75.612,92.715q-3.918,21.264-10.336,30.906-5,7.424-10.96,7.427a10.773,10.773,0,0,1-3.918-.955v-3.418a18.872,18.872,0,0,0,2.668.171,6.449,6.449,0,0,0,4.488-1.535,5.6,5.6,0,0,0,2.042-4.2,27.949,27.949,0,0,0-1.589-6.531L50.966,92.714h6.3l5.054,16.353q1.7,5.57,1.42,7.782a106.82,106.82,0,0,0,5.794-24.137h6.076v0Z" transform="translate(6.3 18.247)"/><path class="e" d="M147.122,121.108H128.9V82.774h6.131V116.39h12.094Zm-23,.926-7.047-3.478a13.1,13.1,0,0,0,1.761-1.712q4.493-5.278,4.489-15.614,0-19.023-14.934-19.026-7.324,0-11.415,4.829-4.489,5.282-4.487,15.561,0,10.108,3.974,14.817,3.636,4.261,10.964,4.263a17.665,17.665,0,0,0,5.019-.673l9.175,5.341Zm-22.829-8.6q-2.328-3.745-2.328-12.035,0-14.478,8.8-14.484a7.385,7.385,0,0,1,6.756,3.462q2.325,3.751,2.33,11.926,0,14.6-8.8,14.6a7.371,7.371,0,0,1-6.758-3.467m-11.476-2.955a10.17,10.17,0,0,1-3.576,8.007q-3.578,3.121-9.592,3.123a19.21,19.21,0,0,1-10.9-3.581l1.648-3.292a18.651,18.651,0,0,0,8.23,2.27,8.645,8.645,0,0,0,5.424-1.527,5.207,5.207,0,0,0,2.088-4.256c0-2.278-1.588-4.224-4.5-5.854-2.687-1.475-8.06-4.56-8.06-4.56-2.912-2.123-4.37-4.4-4.37-8.156a9.523,9.523,0,0,1,3.263-7.523,12.3,12.3,0,0,1,8.435-2.87,17.488,17.488,0,0,1,9.707,2.84L86.134,88.4a18.768,18.768,0,0,0-7.378-1.588,6.573,6.573,0,0,0-4.538,1.421,4.749,4.749,0,0,0-1.72,3.636c0,2.266,1.622,4.238,4.615,5.9,2.723,1.478,8.23,4.616,8.23,4.616,2.987,2.119,4.478,4.377,4.478,8.1" transform="translate(20.195 18.136)"/><path class="d" d="M149.723,82.309a21.4,21.4,0,0,0-8.986,1.3c-.7.278-1.8.278-1.9,1.157.376.372.419.972.745,1.485a10.762,10.762,0,0,0,2.408,2.822c.971.744,1.945,1.48,2.967,2.129,1.8,1.115,3.843,1.763,5.6,2.874,1.023.646,2.04,1.482,3.064,2.177.5.371.826.972,1.479,1.2v-.141c-.327-.417-.42-1.019-.741-1.483l-1.391-1.341a22.043,22.043,0,0,0-4.815-4.675c-1.483-1.022-4.726-2.41-5.328-4.119l-.094-.094a18.454,18.454,0,0,0,3.2-.749c1.576-.415,3.013-.321,4.629-.736.744-.186,1.482-.419,2.228-.648v-.418c-.838-.834-1.436-1.943-2.317-2.731a61.668,61.668,0,0,0-7.642-5.7c-1.438-.929-3.288-1.526-4.819-2.316-.552-.279-1.482-.417-1.806-.88a18.87,18.87,0,0,1-1.9-3.567c-1.339-2.545-2.64-5.37-3.8-8.061a50.1,50.1,0,0,0-2.363-5.278c-4.773-7.873-9.957-12.641-17.924-17.322a22.213,22.213,0,0,0-5.925-1.9l-3.475-.183a18.415,18.415,0,0,1-2.131-1.623c-2.643-1.666-9.449-5.278-11.393-.51-1.252,3.014,1.852,5.977,2.919,7.506a21.289,21.289,0,0,1,2.358,3.474c.326.787.418,1.623.744,2.455a55.478,55.478,0,0,0,2.409,6.208,22.1,22.1,0,0,0,1.712,2.866c.372.513,1.019.74,1.16,1.577-.646.922-.7,2.315-1.067,3.473C95.86,65.772,96.511,72.255,98.873,76.1c.739,1.158,2.5,3.707,4.86,2.73,2.088-.833,1.625-3.473,2.225-5.787.138-.559.047-.926.325-1.293v.091c.646,1.3,1.3,2.544,1.9,3.843a26.409,26.409,0,0,0,6.023,6.2c1.11.838,1.989,2.271,3.379,2.783v-.139h-.092a5.188,5.188,0,0,0-1.063-.924,22.489,22.489,0,0,1-2.409-2.778,59.657,59.657,0,0,1-5.185-8.432c-.746-1.438-1.39-3.01-1.991-4.446-.28-.554-.28-1.39-.745-1.669a17.323,17.323,0,0,0-2.221,3.147c-.882,1.995-.973,4.448-1.3,7l-.182.089c-1.475-.371-1.989-1.9-2.549-3.193a20.061,20.061,0,0,1-.417-12.368c.322-.971,1.717-4.028,1.16-4.953-.279-.886-1.206-1.391-1.715-2.089a18.827,18.827,0,0,1-1.669-2.963c-1.111-2.592-1.67-5.465-2.866-8.056a24.952,24.952,0,0,0-2.316-3.569,22.946,22.946,0,0,1-2.552-3.612c-.231-.51-.554-1.343-.183-1.9a.738.738,0,0,1,.648-.6c.6-.507,2.315.138,2.916.417a23.466,23.466,0,0,1,4.586,2.315c.648.465,1.344,1.345,2.176,1.577h.975c1.479.322,3.147.089,4.539.508a29.816,29.816,0,0,1,6.67,3.194,41.1,41.1,0,0,1,14.446,15.842c.554,1.064.79,2.038,1.3,3.148.976,2.271,2.182,4.587,3.15,6.81a30.518,30.518,0,0,0,3.29,6.205c.693.972,3.478,1.482,4.726,1.991a32.673,32.673,0,0,1,3.2,1.294c1.576.971,3.145,2.085,4.627,3.153.738.555,3.056,1.713,3.194,2.641m-47.245-40.25a7.216,7.216,0,0,0-1.9.233v.093h.089a15.113,15.113,0,0,0,1.484,1.9c.373.743.7,1.479,1.063,2.221l.089-.092a2.6,2.6,0,0,0,.978-2.316,10.584,10.584,0,0,1-.559-.972c-.273-.464-.874-.694-1.249-1.066" transform="translate(25.291 5.762)"/><path class="e" d="M142.911,114.487h.96v-4.7h-1.439l-1.174,3.2-1.276-3.2H138.6v4.7h.906v-3.573h.051l1.337,3.573h.691l1.332-3.573v3.573Zm-7.73,0H136.2v-3.9h1.329v-.8H133.8v.8h1.382l0,3.9Z" transform="translate(36.514 24.752)"/></g></g></svg>