<svg xmlns="http://www.w3.org/2000/svg" width="120" height="120.018" viewBox="0 0 120 120.018"><g transform="translate(-0.5 -0.324)"><path d="M56.57.357c-.258.023-1.079.106-1.818.164a60.143,60.143,0,0,0-43.12,24.868A59.4,59.4,0,0,0,1.04,51.606,45.93,45.93,0,0,0,.5,60.345a45.93,45.93,0,0,0,.54,8.739,60.249,60.249,0,0,0,41.044,48.481,63.436,63.436,0,0,0,12.669,2.628,110.517,110.517,0,0,0,11.5,0,60.58,60.58,0,0,0,21.619-6.323c1.032-.528,1.232-.669,1.091-.786-.094-.07-4.493-5.971-9.771-13.1l-9.6-12.962L57.567,69.225c-6.616-9.783-12.059-17.783-12.106-17.783s-.094,7.894-.117,17.548c-.035,16.9-.047,17.584-.258,17.982a2.132,2.132,0,0,1-1.032,1.067c-.375.188-.7.223-2.475.223H39.55l-.54-.34a2.193,2.193,0,0,1-.786-.856l-.246-.528L38,63.02l.035-23.531.364-.457a3.218,3.218,0,0,1,.868-.716c.481-.235.669-.258,2.7-.258,2.393,0,2.792.094,3.413.774.176.188,6.686,9.994,14.475,21.806S78.295,88.58,83.526,96.5l9.5,14.393.481-.317a61.594,61.594,0,0,0,12.328-10.815A59.734,59.734,0,0,0,119.96,69.084a45.931,45.931,0,0,0,.54-8.739,45.931,45.931,0,0,0-.54-8.739A60.249,60.249,0,0,0,78.916,3.125,62.993,62.993,0,0,0,66.424.509C65.3.392,57.544.263,56.57.357ZM81.133,36.65a2.367,2.367,0,0,1,1.185,1.384c.094.3.117,6.827.094,21.525L82.377,80.65l-3.718-5.7-3.73-5.7V53.917c0-9.912.047-15.484.117-15.754a2.393,2.393,0,0,1,1.161-1.478c.481-.246.657-.27,2.5-.27,1.736,0,2.041.023,2.428.235Z" transform="translate(0 0)"/><path d="M760.245,943.246c-.411.258-.54.434-.176.235.258-.153.68-.469.61-.481A2.409,2.409,0,0,0,760.245,943.246Zm-.809.528c-.211.164-.211.176.047.047a.719.719,0,0,0,.258-.176C759.74,943.551,759.682,943.575,759.435,943.774Zm-.586.352c-.211.164-.211.176.047.047a.717.717,0,0,0,.258-.176C759.154,943.9,759.1,943.927,758.849,944.126Zm-.587.352c-.211.164-.211.176.047.047a.717.717,0,0,0,.258-.176C758.567,944.255,758.509,944.279,758.262,944.478Zm-.891.469c-.446.235-.422.328.023.106a1.221,1.221,0,0,0,.352-.235C757.746,944.736,757.734,944.748,757.371,944.947Z" transform="translate(-667.803 -832.098)"/></g></svg>