<svg xmlns="http://www.w3.org/2000/svg" xmlns:xlink="http://www.w3.org/1999/xlink" width="176.974" height="108.444" viewBox="0 0 176.974 108.444"><defs><style>.a{fill:#689f63;}.b{fill:#404137;}.c{clip-path:url(#a);}.d{fill:url(#b);}.e{clip-path:url(#c);}.f{fill:url(#d);}.g{clip-path:url(#e);}.h{fill:url(#f);}</style><clipPath id="a"><path d="M181.1,189.591l-16.878,9.748a2.037,2.037,0,0,0-1.018,1.746v19.5a1.979,1.979,0,0,0,1.018,1.746l16.878,9.748a2.164,2.164,0,0,0,2.037,0l16.878-9.748a2.037,2.037,0,0,0,1.018-1.746v-19.5a1.979,1.979,0,0,0-1.018-1.746l-16.878-9.748a1.928,1.928,0,0,0-2.037,0" transform="translate(-163.2 -189.3)"/></clipPath><linearGradient id="b" x1="-0.862" y1="-1.053" x2="-0.858" y2="-1.053" gradientUnits="objectBoundingBox"><stop offset="0" stop-color="#3e863d"/><stop offset="0.3" stop-color="#3e863d"/><stop offset="0.5" stop-color="#55934f"/><stop offset="0.8" stop-color="#5aad45"/><stop offset="1" stop-color="#5aad45"/></linearGradient><clipPath id="c"><path d="M164.1,221.9a2.068,2.068,0,0,0,.582.534l14.453,8.342,2.425,1.406a1.952,1.952,0,0,0,1.164.242.914.914,0,0,0,.388-.1l17.8-32.543a1.9,1.9,0,0,0-.485-.388l-11.058-6.353-5.82-3.346a1.737,1.737,0,0,0-.533-.194Z" transform="translate(-164.1 -189.5)"/></clipPath><linearGradient id="d" x1="-0.758" y1="-0.949" x2="-0.754" y2="-0.949" gradientUnits="objectBoundingBox"><stop offset="0" stop-color="#3e863d"/><stop offset="0.57" stop-color="#3e863d"/><stop offset="0.72" stop-color="#619857"/><stop offset="1" stop-color="#76ac64"/></linearGradient><clipPath id="e"><path d="M183.054,189.3a2.326,2.326,0,0,0-.824.243l-16.829,9.7,18.139,33.028a2.145,2.145,0,0,0,.727-.242l16.878-9.748a1.953,1.953,0,0,0,.97-1.406l-18.478-31.525a1.2,1.2,0,0,0-.388-.049h-.194" transform="translate(-165.4 -189.3)"/></clipPath><linearGradient id="f" x1="-2.187" y1="-2.133" x2="-2.179" y2="-2.133" gradientUnits="objectBoundingBox"><stop offset="0" stop-color="#6bbf47"/><stop offset="0.16" stop-color="#6bbf47"/><stop offset="0.38" stop-color="#79b461"/><stop offset="0.47" stop-color="#75ac64"/><stop offset="0.7" stop-color="#659e5a"/><stop offset="0.9" stop-color="#3e863d"/><stop offset="1" stop-color="#3e863d"/></linearGradient></defs><g transform="translate(-67.6 -138.2)"><path class="a" d="M227.4,315.5a3.539,3.539,0,0,1-1.7-.436l-5.335-3.152c-.776-.436-.388-.582-.145-.679a10.614,10.614,0,0,0,2.425-1.115.38.38,0,0,1,.388.049l4.122,2.425a.441.441,0,0,0,.485,0l16-9.215a.509.509,0,0,0,.243-.436V284.51a.509.509,0,0,0-.243-.436l-15.956-9.215a.441.441,0,0,0-.485,0l-15.956,9.215a.509.509,0,0,0-.243.436v18.43a.509.509,0,0,0,.243.436l4.365,2.522c2.376,1.212,3.831-.194,3.831-1.6V286.013a.448.448,0,0,1,.485-.437h2.037a.435.435,0,0,1,.436.437v18.236c0,3.152-1.746,5-4.753,5a6.771,6.771,0,0,1-3.686-1.019L209.8,305.8a3.384,3.384,0,0,1-1.7-2.91v-18.43a3.285,3.285,0,0,1,1.7-2.91l16-9.215a3.425,3.425,0,0,1,3.346,0l16,9.215a3.384,3.384,0,0,1,1.7,2.91v18.43a3.285,3.285,0,0,1-1.7,2.91l-16,9.215a3.952,3.952,0,0,1-1.746.485" transform="translate(-72.358 -68.856)"/><path class="a" d="M249.139,311.755c-6.984,0-8.439-3.2-8.439-5.917a.448.448,0,0,1,.485-.437h2.085a.4.4,0,0,1,.436.388c.291,2.085,1.261,3.152,5.48,3.152,3.346,0,4.8-.776,4.8-2.57,0-1.018-.388-1.794-5.626-2.328-4.365-.436-7.081-1.406-7.081-4.9,0-3.249,2.716-5.141,7.275-5.141,5.141,0,7.663,1.795,7.954,5.577a.5.5,0,0,1-.485.485H253.94a.466.466,0,0,1-.436-.34c-.485-2.231-1.7-2.91-5-2.91-3.686,0-4.122,1.261-4.122,2.231,0,1.164.485,1.5,5.48,2.182,4.9.63,7.226,1.552,7.226,5.044s-2.91,5.48-7.954,5.48m19.448-19.545h.533a.468.468,0,0,0,.534-.485c0-.485-.34-.485-.485-.485h-.534Zm-.679-1.552h1.212c.388,0,1.212,0,1.212.922a.735.735,0,0,1-.63.824c.485.048.485.34.582.776a3.789,3.789,0,0,0,.194.922h-.728c0-.146-.145-1.018-.145-1.067-.049-.194-.1-.291-.34-.291h-.582v1.406h-.679v-3.492ZM266.5,292.4a2.57,2.57,0,1,0,2.57-2.57,2.556,2.556,0,0,0-2.57,2.57m5.674,0a3.126,3.126,0,0,1-3.1,3.1,3.1,3.1,0,1,1,0-6.208,3.158,3.158,0,0,1,3.1,3.1" transform="translate(-89.148 -77.818)"/><path class="b" d="M105.526,174.429a2.116,2.116,0,0,0-1.018-1.794l-16.926-9.748a3.381,3.381,0,0,0-.921-.291h-.194a1.6,1.6,0,0,0-.921.291l-16.926,9.748a2.116,2.116,0,0,0-1.018,1.794l.049,26.287a.994.994,0,0,0,1.5.873l10.039-5.771a2.116,2.116,0,0,0,1.018-1.794v-12.27a2.116,2.116,0,0,1,1.018-1.794l4.268-2.473a2.037,2.037,0,0,1,1.018-.291,1.909,1.909,0,0,1,1.018.291l4.268,2.473a2.057,2.057,0,0,1,1.018,1.794v12.27a2.116,2.116,0,0,0,1.018,1.794l10.088,5.771a.963.963,0,0,0,1.018,0,1.084,1.084,0,0,0,.485-.873ZM185.5,188.106a.509.509,0,0,1-.242.437l-5.82,3.346a.523.523,0,0,1-.533,0l-5.82-3.346a.509.509,0,0,1-.242-.437v-6.741a.509.509,0,0,1,.242-.437l5.82-3.346a.523.523,0,0,1,.533,0l5.82,3.346a.509.509,0,0,1,.242.437Zm1.6-49.76a.963.963,0,0,0-1.018,0,1.084,1.084,0,0,0-.485.873v26.044a.829.829,0,0,1-.34.63.661.661,0,0,1-.727,0l-4.268-2.425a1.928,1.928,0,0,0-2.037,0l-16.975,9.8a2.037,2.037,0,0,0-1.018,1.746V194.6a2.117,2.117,0,0,0,1.018,1.794l16.975,9.8a1.928,1.928,0,0,0,2.037,0l16.975-9.8a2.057,2.057,0,0,0,1.018-1.794V145.766a2.06,2.06,0,0,0-1.067-1.794Zm56.453,42.873a2.037,2.037,0,0,0,1.019-1.746V174.72a2.116,2.116,0,0,0-1.019-1.794l-16.829-9.8a1.928,1.928,0,0,0-2.037,0l-16.975,9.8a2.057,2.057,0,0,0-1.018,1.794v19.545a2.117,2.117,0,0,0,1.018,1.794l16.829,9.6a2.069,2.069,0,0,0,1.988,0l10.185-5.674a1.022,1.022,0,0,0,.534-.873.916.916,0,0,0-.534-.873l-17.072-9.8a1.022,1.022,0,0,1-.533-.873v-6.159a.916.916,0,0,1,.533-.873l5.286-3.055a.963.963,0,0,1,1.018,0l5.286,3.055a1.022,1.022,0,0,1,.533.873v4.85a.916.916,0,0,0,.534.873.963.963,0,0,0,1.018,0Z"/><path class="a" d="M389.343,224.961a.535.535,0,0,1,.388,0l3.249,1.891a.325.325,0,0,1,.194.339v3.734a.408.408,0,0,1-.194.34l-3.249,1.891a.531.531,0,0,1-.388,0l-3.249-1.891a.325.325,0,0,1-.194-.34v-3.734a.325.325,0,0,1,.194-.339Z" transform="translate(-163.927 -44.664)"/><g transform="translate(113.965 162.983)"><g class="c" transform="translate(0 0)"><path class="d" d="M199.976,181.78,152.447,158.5,128.1,208.212l47.529,23.28Z" transform="translate(-145.123 -173.438)"/></g></g><g transform="translate(114.402 163.08)"><g class="e" transform="translate(0 0)"><path class="f" d="M121.8,185.886l33.513,45.4,44.377-32.737L166.128,153.1Z" transform="translate(-142.315 -170.754)"/></g></g><g transform="translate(115.032 162.983)"><g class="g"><rect class="h" width="36.665" height="42.97" transform="translate(0.048 0)"/></g></g></g></svg>