<svg xmlns="http://www.w3.org/2000/svg" width="120" height="106.766" viewBox="0 0 120 106.766"><defs><style>.a{fill:#53c1de;}.b{fill:#fff;}</style></defs><g transform="translate(-14.44 -13.753)"><path class="a" d="M113.907,49.119q-1.916-.657-3.863-1.217.323-1.312.6-2.635c2.924-14.195,1.012-25.63-5.517-29.394-6.26-3.61-16.5.154-26.838,9.152q-1.528,1.333-2.988,2.742-.977-.937-1.988-1.836c-10.837-9.622-21.7-13.676-28.221-9.9-6.254,3.62-8.106,14.371-5.474,27.823q.393,2,.887,3.975c-1.537.437-3.021.9-4.441,1.4C23.357,53.654,15.243,60.6,15.243,67.8c0,7.437,8.71,14.9,21.943,19.419q1.61.548,3.245,1.014-.531,2.128-.943,4.284c-2.51,13.219-.55,23.714,5.688,27.312,6.442,3.715,17.255-.1,27.784-9.307q1.248-1.091,2.5-2.308,1.58,1.525,3.244,2.96c10.2,8.776,20.271,12.32,26.5,8.712,6.437-3.726,8.528-15,5.812-28.72q-.311-1.572-.72-3.208,1.139-.336,2.232-.7C126.293,82.7,135.243,75.333,135.243,67.8c0-7.226-8.375-14.215-21.335-18.677Z" transform="translate(-0.803 -0.761)"/><path class="b" d="M115.449,86.909c-.656.217-1.329.427-2.015.63a120.32,120.32,0,0,0-6.077-15.2,120.266,120.266,0,0,0,5.84-14.981c1.227.356,2.419.73,3.567,1.126,11.1,3.822,17.878,9.474,17.878,13.829,0,4.639-7.316,10.661-19.193,14.6Zm-4.928,9.766a43.408,43.408,0,0,1,.577,15.838c-.715,3.852-2.152,6.421-3.929,7.449-3.782,2.189-11.87-.656-20.591-8.162q-1.5-1.291-3.018-2.751A120.468,120.468,0,0,0,93.619,96.277a119.669,119.669,0,0,0,16.253-2.505q.366,1.482.649,2.9ZM60.679,119.584c-3.695,1.3-6.637,1.342-8.416.317-3.786-2.183-5.359-10.611-3.212-21.915q.383-2,.876-3.984A120.543,120.543,0,0,0,66.1,96.343a124.744,124.744,0,0,0,10.3,12.727q-1.117,1.081-2.286,2.105a43.417,43.417,0,0,1-13.433,8.41ZM43.37,86.88a43.428,43.428,0,0,1-14-7.435C26.4,76.9,24.9,74.366,24.9,72.312c0-4.369,6.515-9.943,17.38-13.731q2.046-.71,4.13-1.3a122.944,122.944,0,0,0,5.849,15.155,124.812,124.812,0,0,0-5.922,15.371q-1.492-.427-2.962-.927Zm5.8-39.5c-2.255-11.526-.758-20.22,3.011-22.4,4.015-2.324,12.892.99,22.248,9.3.6.531,1.2,1.087,1.8,1.662A122.846,122.846,0,0,0,66.01,48.592,125.26,125.26,0,0,0,50,51.081q-.459-1.838-.825-3.7Zm51.762,12.781q-1.76-3.04-3.649-6c3.829.483,7.5,1.126,10.942,1.912a109.354,109.354,0,0,1-3.841,10.333q-1.663-3.156-3.452-6.244ZM79.826,39.606a109.632,109.632,0,0,1,7.062,8.525q-7.087-.335-14.183,0c2.331-3.074,4.72-5.931,7.121-8.522ZM58.582,60.2q-1.766,3.063-3.387,6.206c-1.493-3.541-2.77-7.022-3.813-10.384,3.424-.766,7.075-1.392,10.879-1.868q-1.91,2.979-3.679,6.046ZM62.37,90.835a109.154,109.154,0,0,1-11.059-1.778c1.06-3.421,2.365-6.977,3.89-10.594q1.628,3.144,3.4,6.209,1.81,3.126,3.767,6.163Zm17.6,14.546c-2.43-2.622-4.853-5.522-7.22-8.641q3.446.135,7.021.136,3.669,0,7.244-.161A109.01,109.01,0,0,1,79.968,105.38Zm24.468-27.1a108.871,108.871,0,0,1,4.03,10.556,108.8,108.8,0,0,1-11.194,1.908q1.9-3.016,3.684-6.106,1.811-3.14,3.48-6.358Zm-7.921,3.8q-2.727,4.737-5.757,9.289c-3.56.254-7.24.386-10.989.386-3.734,0-7.367-.116-10.865-.343Q65.8,86.868,63.04,82.1q-2.742-4.735-5.12-9.669,2.369-4.931,5.1-9.674h0q2.732-4.74,5.818-9.263c3.569-.27,7.228-.411,10.927-.411,3.715,0,7.379.142,10.947.414q3.053,4.512,5.782,9.232t5.173,9.628q-2.4,4.947-5.156,9.713ZM107.09,24.83c4.018,2.318,5.581,11.663,3.056,23.919q-.248,1.2-.54,2.386A122.805,122.805,0,0,0,93.562,48.6a120.426,120.426,0,0,0-10.144-12.66q1.348-1.3,2.759-2.531c8.859-7.71,17.139-10.754,20.912-8.578Z" transform="translate(-5.329 -5.277)"/><path class="a" d="M118.76,94.665a10.716,10.716,0,1,1-10.716,10.716A10.716,10.716,0,0,1,118.76,94.665" transform="translate(-44.32 -38.346)"/></g></svg>